<svg width="1440" height="72" viewBox="0 0 1440 72" fill="none" xmlns="http://www.w3.org/2000/svg">
<path d="M-15 -14.5H1504V71.5L1460 24L1447 53L1426 24L1408 53L1387 24L1367 53L1338.5 9.5L1315.5 39.5H1224.5L1214.5 24L1198 53L1178.5 24L1161.5 53L1145 24L1127.5 53L1119.5 39.5H1042.5L1030 24L1007 53L990.5 24L968.5 39.5H900L878 24L857 57.5L836 24L810 57.5L791.5 24L767 57.5L744 24L719.5 39.5H673.5L635.5 57.5L612.5 24L599 39.5H529.5L513 57.5C505.684 48.4223 492.948 31.9651 490.159 26.1254C488.241 31.9651 477.961 48.4223 472 57.5L452.5 24L431.5 57.5L418 24L396 57.5L382.5 39.5H312L301 24L284 39.5H242.5L219 57.5L209 24L182.5 57.5L165 39.5H128.5L104 24L79 57.5L56.5 24L37 57.5L15.5 24L-4 57.5L-15 39.5V-14.5Z" fill="white"/>
</svg>
