<svg width="338" height="28" viewBox="0 0 338 28" fill="none" xmlns="http://www.w3.org/2000/svg">
<path d="M0 1L2.49111 1C4.48399 1.20716 8.37011 2.11866 7.97154 4.10739C7.97154 4.60457 7.97154 4.93602 7.97154 5.0396" stroke="#999999" stroke-width="2"/>
<path d="M8 3.52469L8 19.6831" stroke="#999999" stroke-width="2"/>
<path d="M16 21.7029L13.5089 21.7029C11.516 21.4957 7.62989 20.5842 8.02846 18.5955C8.02846 18.0983 8.02846 17.7669 8.02846 17.6633" stroke="#999999" stroke-width="2"/>
<path d="M67 21.7029H14" stroke="#999999" stroke-width="2"/>
<path d="M64 21.7031H81.5L88.5 16.6536L97 26.5001L107.5 17.411L117 25.7427L127 16.906L136 26.5001L144.5 16.906L155.5 26.5001L162.5 21.7031H175.5" stroke="#999999" stroke-width="2"/>
<path d="M174 21.7031H191.5L198.5 16.6536L207 26.5001L217.5 17.411L227 25.7427L237 16.906L246 26.5001L254.5 16.906L265.5 26.5001L272.5 21.7031H285.5" stroke="#999999" stroke-width="2"/>
<path d="M336 21.7029H283" stroke="#999999" stroke-width="2"/>
<path d="M359 21.7029H306" stroke="#999999" stroke-width="2"/>
</svg>
