<svg width="407" height="99" viewBox="0 0 407 99" fill="none" xmlns="http://www.w3.org/2000/svg">
<path d="M53 87H0" stroke="#999999" stroke-width="2"/>
<path d="M106 87H53" stroke="#999999" stroke-width="2"/>
<path d="M106 87H123.5L130.5 77L139 96.5L149.5 78.5L159 95L169 77.5L178 96.5L186.5 77.5L197.5 96.5L204.5 87H217.5" stroke="#999999" stroke-width="2"/>
<path d="M218 34L218 87" stroke="#999999" stroke-width="2"/>
<path d="M271 34H218" stroke="#999999" stroke-width="2"/>
<path d="M285 2.5V63M300.5 1C293.667 10.8333 282 31 300.5 66.5M276.5 4.5V15.5M271 10H281.5" stroke="#999999" stroke-width="2"/>
<path d="M354 34H301" stroke="#999999" stroke-width="2"/>
<path d="M407 34H354" stroke="#999999" stroke-width="2"/>
</svg>
