<svg width="169" height="45" viewBox="0 0 169 45" fill="none" xmlns="http://www.w3.org/2000/svg">
<path d="M0 22H17.5L24.5 12L33 31.5L43.5 13.5L53 30L63 12.5L72 31.5L80.5 12.5L91.5 31.5L98.5 22H111.5" stroke="#A5A5A5"/>
<path d="M150.5 35.5L120.5 35.5C119.167 35.1667 116.4 33.9 116 31.5C116 30.3 116 29.6667 116 29.5" stroke="#A5A5A5"/>
<path d="M159.5 27.5C164.496 27.5 168.5 31.3307 168.5 36C168.5 40.6693 164.496 44.5 159.5 44.5C154.504 44.5 150.5 40.6693 150.5 36C150.5 31.3307 154.504 27.5 159.5 27.5Z" stroke="#A5A5A5"/>
<path d="M150.5 8.5L120.5 8.5C119.333 8.66667 116.8 9.8 116 13L116 15" stroke="#A5A5A5"/>
<path d="M159.5 0.5C164.496 0.499999 168.5 4.33071 168.5 9C168.5 13.6693 164.496 17.5 159.5 17.5C154.504 17.5 150.5 13.6693 150.5 9C150.5 4.33071 154.504 0.5 159.5 0.5Z" stroke="#A5A5A5"/>
<path d="M116 14L116 16.4911C115.59 18.484 113.785 22.3701 109.846 21.9715C108.862 21.9715 108.205 21.9715 108 21.9715" stroke="#A5A5A5"/>
<path d="M108 22L110.491 22C112.484 22.4103 116.37 24.2154 115.972 28.1538C115.972 29.1385 115.972 29.7949 115.972 30" stroke="#A5A5A5"/>
</svg>
